<?xml version="1.0" encoding="UTF-8"?>
<svg xmlns="http://www.w3.org/2000/svg" xmlns:xlink="http://www.w3.org/1999/xlink" viewBox="0 0 36 36" width="36px" height="36px">
<g id="surface26181072">
<path style=" stroke:none;fill-rule:nonzero;fill:rgb(0%,0%,0%);fill-opacity:1;" d="M 18 3.601562 C 10.046875 3.601562 3.601562 10.046875 3.601562 18 C 3.601562 24.746094 8.246094 30.394531 14.511719 31.957031 C 14.441406 31.761719 14.398438 31.535156 14.398438 31.257812 L 14.398438 28.796875 C 13.816406 28.796875 12.835938 28.796875 12.589844 28.796875 C 11.605469 28.796875 10.730469 28.371094 10.304688 27.585938 C 9.832031 26.710938 9.75 25.371094 8.582031 24.554688 C 8.234375 24.28125 8.5 23.96875 8.898438 24.011719 C 9.636719 24.222656 10.25 24.726562 10.824219 25.476562 C 11.398438 26.230469 11.667969 26.402344 12.742188 26.402344 C 13.261719 26.402344 14.039062 26.371094 14.769531 26.257812 C 15.164062 25.257812 15.84375 24.335938 16.675781 23.902344 C 11.878906 23.410156 9.589844 21.023438 9.589844 17.785156 C 9.589844 16.390625 10.1875 15.039062 11.195312 13.90625 C 10.863281 12.777344 10.445312 10.476562 11.320312 9.601562 C 13.480469 9.601562 14.785156 11 15.097656 11.378906 C 16.171875 11.007812 17.351562 10.800781 18.59375 10.800781 C 19.835938 10.800781 21.023438 11.007812 22.101562 11.378906 C 22.410156 11.003906 23.714844 9.601562 25.878906 9.601562 C 26.757812 10.476562 26.335938 12.789062 26 13.914062 C 27.003906 15.046875 27.59375 16.390625 27.59375 17.785156 C 27.59375 21.019531 25.308594 23.40625 20.519531 23.902344 C 21.839844 24.589844 22.800781 26.519531 22.800781 27.976562 L 22.800781 31.257812 C 22.800781 31.382812 22.773438 31.472656 22.757812 31.578125 C 28.371094 29.609375 32.398438 24.28125 32.398438 18 C 32.398438 10.046875 25.953125 3.601562 18 3.601562 Z M 18 3.601562 "/>
</g>
</svg>
